<svg width="287" height="721" viewBox="0 0 287 721" fill="none" xmlns="http://www.w3.org/2000/svg">
<rect x="0.5" y="0.5" width="286" height="719.5" rx="4.5" stroke="#7B61FF" stroke-dasharray="10 5"/>
<path d="M143.5 106.75C146.126 106.75 148.727 107.267 151.154 108.272C153.58 109.278 155.785 110.751 157.642 112.608C159.499 114.465 160.972 116.67 161.978 119.096C162.983 121.523 163.5 124.124 163.5 126.75C163.5 129.376 162.983 131.977 161.978 134.404C160.972 136.83 159.499 139.035 157.642 140.892C155.785 142.749 153.58 144.222 151.154 145.228C148.727 146.233 146.126 146.75 143.5 146.75C140.874 146.75 138.273 146.233 135.846 145.228C133.42 144.222 131.215 142.749 129.358 140.892C127.501 139.035 126.027 136.83 125.022 134.404C124.017 131.977 123.5 129.376 123.5 126.75C123.5 124.124 124.017 121.523 125.022 119.096C126.028 116.67 127.501 114.465 129.358 112.608C131.215 110.751 133.42 109.277 135.846 108.272C138.273 107.267 140.874 106.75 143.5 106.75L143.5 106.75Z" stroke="#F2F4F8" stroke-width="12"/>
<path d="M143.5 106.75C139.544 106.75 135.678 107.923 132.389 110.121C129.1 112.318 126.536 115.442 125.022 119.096C123.509 122.751 123.113 126.772 123.884 130.652C124.656 134.531 126.561 138.095 129.358 140.892" stroke="#6833FF" stroke-width="12" stroke-linecap="round" stroke-linejoin="round"/>
<g clip-path="url(#clip0_152_896)">
<path d="M160.643 358.132C166.201 358.132 170.707 353.622 170.707 348.059C170.707 342.496 166.201 337.987 160.643 337.987C155.085 337.987 150.579 342.496 150.579 348.059C150.579 353.622 155.085 358.132 160.643 358.132Z" fill="#E6E6E6"/>
<path d="M185.307 361.004L174.79 350.477C175.596 349.222 176.143 347.818 176.397 346.348C176.651 344.878 176.607 343.371 176.269 341.918C175.931 340.465 175.305 339.095 174.428 337.888C173.551 336.682 172.441 335.664 171.163 334.895C168.758 333.457 165.901 332.975 163.158 333.545C160.415 334.116 157.986 335.696 156.352 337.974C154.849 340.084 154.127 342.652 154.31 345.238C154.494 347.823 155.571 350.263 157.358 352.139C159.144 354.015 161.527 355.21 164.098 355.518C166.669 355.826 169.267 355.227 171.445 353.826L181.962 364.352C182.405 364.796 183.007 365.045 183.634 365.045C184.261 365.044 184.863 364.795 185.306 364.351C185.75 363.907 185.999 363.305 185.999 362.677C185.999 362.05 185.75 361.448 185.307 361.004ZM171.052 350.084C169.749 351.389 168.035 352.2 166.201 352.381C164.367 352.562 162.527 352.101 160.994 351.076C159.462 350.051 158.332 348.526 157.797 346.761C157.262 344.996 157.355 343.1 158.061 341.396C158.766 339.692 160.04 338.285 161.665 337.415C163.29 336.546 165.166 336.267 166.974 336.627C168.781 336.987 170.408 337.963 171.577 339.389C172.746 340.815 173.385 342.602 173.385 344.447C173.387 345.494 173.181 346.531 172.781 347.499C172.38 348.466 171.793 349.345 171.052 350.084Z" fill="#3F3D56"/>
<path d="M261.541 376.53C288.436 406.301 210.472 449.204 147.475 449.204C84.4775 449.204 40.8934 415.962 33.4083 376.53C15.2595 280.923 188.04 220.155 147.475 303.857C88.3453 425.861 240.36 353.086 261.541 376.53Z" fill="#E6E6E6"/>
<path d="M249.474 383.576C276.369 413.347 198.404 456.25 135.407 456.25C72.4101 456.25 28.826 423.007 21.3409 383.576C3.1921 287.969 175.973 227.201 135.407 310.902C76.2779 432.906 228.293 360.131 249.474 383.576Z" fill="#3F3D56"/>
<path d="M82.3144 342.925C63.4423 342.093 48.8096 338.018 49.0019 333.648C49.1171 331.028 54.4581 328.922 63.6553 327.869C63.6882 327.865 63.7216 327.867 63.7535 327.876C63.7855 327.885 63.8153 327.9 63.8413 327.921C63.8673 327.941 63.8891 327.967 63.9052 327.996C63.9213 328.025 63.9316 328.057 63.9353 328.09C63.9391 328.123 63.9363 328.156 63.9271 328.188C63.918 328.22 63.9026 328.25 63.8819 328.276C63.8611 328.301 63.8355 328.323 63.8064 328.339C63.7774 328.355 63.7454 328.365 63.7125 328.369C55.0487 329.361 49.6044 331.392 49.5042 333.671C49.3303 337.622 64.3657 341.63 82.3365 342.422C100.307 343.214 115.636 340.545 115.81 336.593C115.911 334.305 110.632 331.795 102.034 330.043C102.002 330.037 101.971 330.024 101.943 330.005C101.916 329.987 101.892 329.963 101.874 329.936C101.856 329.908 101.843 329.877 101.837 329.845C101.83 329.812 101.83 329.779 101.837 329.746C101.844 329.714 101.857 329.683 101.875 329.655C101.894 329.628 101.917 329.605 101.945 329.586C101.973 329.568 102.004 329.555 102.036 329.549C102.069 329.543 102.102 329.543 102.134 329.55C111.26 331.41 116.428 333.985 116.313 336.615C116.12 340.985 101.187 343.756 82.3144 342.925Z" fill="#6833FF"/>
<path d="M65.5531 343.657C67.1319 346.659 69.4706 349.193 72.3352 351.006C75.1998 352.819 78.4899 353.847 81.8763 353.988C85.2626 354.129 88.6266 353.377 91.6314 351.808C94.6363 350.238 97.1768 347.907 98.9987 345.046C87.8331 345.197 76.6678 344.733 65.5531 343.657Z" fill="#6833FF"/>
<path d="M101.086 339.753C102.036 336.9 102.31 333.866 101.886 330.889C101.462 327.912 100.351 325.075 98.6419 322.602C96.9328 320.129 94.6721 318.088 92.0387 316.641C89.4054 315.194 86.4716 314.38 83.4697 314.264C80.4678 314.148 77.4801 314.733 74.743 315.973C72.006 317.212 69.5948 319.073 67.7002 321.406C65.8057 323.74 64.4797 326.483 63.8274 329.418C63.175 332.353 63.2142 335.4 63.9417 338.317C76.2091 340.402 88.6948 340.884 101.086 339.753Z" fill="#6833FF"/>
<path d="M87.1513 326.764C88.4009 326.764 89.4139 325.75 89.4139 324.499C89.4139 323.248 88.4009 322.234 87.1513 322.234C85.9017 322.234 84.8887 323.248 84.8887 324.499C84.8887 325.75 85.9017 326.764 87.1513 326.764Z" fill="white"/>
<path d="M75.5063 335.568C77.589 335.568 79.2773 333.879 79.2773 331.794C79.2773 329.709 77.589 328.019 75.5063 328.019C73.4236 328.019 71.7352 329.709 71.7352 331.794C71.7352 333.879 73.4236 335.568 75.5063 335.568Z" fill="white"/>
<path d="M107.716 302.724C109.104 302.724 110.23 301.598 110.23 300.208C110.23 298.818 109.104 297.692 107.716 297.692C106.327 297.692 105.202 298.818 105.202 300.208C105.202 301.598 106.327 302.724 107.716 302.724Z" fill="#6833FF"/>
<path d="M50.8986 379.724C51.7317 379.724 52.407 379.048 52.407 378.214C52.407 377.381 51.7317 376.705 50.8986 376.705C50.0655 376.705 49.3901 377.381 49.3901 378.214C49.3901 379.048 50.0655 379.724 50.8986 379.724Z" fill="#E6E6E6"/>
<path d="M156.488 431.561C157.321 431.561 157.996 430.885 157.996 430.051C157.996 429.217 157.321 428.541 156.488 428.541C155.655 428.541 154.979 429.217 154.979 430.051C154.979 430.885 155.655 431.561 156.488 431.561Z" fill="#E6E6E6"/>
<path d="M98.5084 388.27C99.3415 388.27 100.017 387.594 100.017 386.76C100.017 385.926 99.3415 385.25 98.5084 385.25C97.6753 385.25 97 385.926 97 386.76C97 387.594 97.6753 388.27 98.5084 388.27Z" fill="#E6E6E6"/>
<path d="M58.1893 350.535C58.6058 350.535 58.9435 350.197 58.9435 349.78C58.9435 349.363 58.6058 349.025 58.1893 349.025C57.7727 349.025 57.4351 349.363 57.4351 349.78C57.4351 350.197 57.7727 350.535 58.1893 350.535Z" fill="#E6E6E6"/>
<path d="M120.537 406.901C120.954 406.901 121.291 406.563 121.291 406.146C121.291 405.729 120.954 405.391 120.537 405.391C120.121 405.391 119.783 405.729 119.783 406.146C119.783 406.563 120.121 406.901 120.537 406.901Z" fill="#E6E6E6"/>
<path d="M233.92 399.603C234.336 399.603 234.674 399.265 234.674 398.848C234.674 398.431 234.336 398.094 233.92 398.094C233.503 398.094 233.166 398.431 233.166 398.848C233.166 399.265 233.503 399.603 233.92 399.603Z" fill="#E6E6E6"/>
<path d="M198.472 421.999C198.889 421.999 199.226 421.661 199.226 421.244C199.226 420.827 198.889 420.489 198.472 420.489C198.055 420.489 197.718 420.827 197.718 421.244C197.718 421.661 198.055 421.999 198.472 421.999Z" fill="#E6E6E6"/>
<path d="M161.516 394.822C161.932 394.822 162.27 394.484 162.27 394.067C162.27 393.65 161.932 393.312 161.516 393.312C161.099 393.312 160.762 393.65 160.762 394.067C160.762 394.484 161.099 394.822 161.516 394.822Z" fill="#E6E6E6"/>
<path d="M113.749 320.339C114.166 320.339 114.504 320.001 114.504 319.584C114.504 319.167 114.166 318.829 113.749 318.829C113.333 318.829 112.995 319.167 112.995 319.584C112.995 320.001 113.333 320.339 113.749 320.339Z" fill="#E6E6E6"/>
<path d="M119.783 283.097C120.199 283.097 120.537 282.759 120.537 282.342C120.537 281.925 120.199 281.587 119.783 281.587C119.366 281.587 119.029 281.925 119.029 282.342C119.029 282.759 119.366 283.097 119.783 283.097Z" fill="#E6E6E6"/>
<path d="M116.263 439.865C116.68 439.865 117.017 439.527 117.017 439.11C117.017 438.693 116.68 438.355 116.263 438.355C115.847 438.355 115.509 438.693 115.509 439.11C115.509 439.527 115.847 439.865 116.263 439.865Z" fill="#E6E6E6"/>
<path d="M79.0557 424.012C79.4723 424.012 79.81 423.674 79.81 423.257C79.81 422.84 79.4723 422.502 79.0557 422.502C78.6392 422.502 78.3015 422.84 78.3015 423.257C78.3015 423.674 78.6392 424.012 79.0557 424.012Z" fill="#E6E6E6"/>
<path d="M196.964 396.835C197.38 396.835 197.718 396.497 197.718 396.08C197.718 395.663 197.38 395.325 196.964 395.325C196.547 395.325 196.209 395.663 196.209 396.08C196.209 396.497 196.547 396.835 196.964 396.835Z" fill="#E6E6E6"/>
<path d="M82.0076 352.229C83.2572 352.229 84.2702 351.215 84.2702 349.964C84.2702 348.713 83.2572 347.699 82.0076 347.699C80.758 347.699 79.745 348.713 79.745 349.964C79.745 351.215 80.758 352.229 82.0076 352.229Z" fill="white"/>
<path d="M225.359 344.249C225.295 344.373 225.242 344.502 225.198 344.634L213.185 347.975L211.02 345.854L207.396 348.706L210.864 352.833C211.144 353.166 211.525 353.4 211.949 353.498C212.373 353.596 212.817 353.554 213.215 353.379L226.192 347.645C226.632 347.951 227.155 348.115 227.691 348.117C228.227 348.118 228.75 347.956 229.192 347.652C229.634 347.348 229.972 346.916 230.163 346.415C230.354 345.914 230.387 345.366 230.26 344.845C230.132 344.325 229.849 343.855 229.448 343.499C229.047 343.143 228.547 342.918 228.015 342.853C227.483 342.788 226.944 342.887 226.47 343.137C225.995 343.386 225.608 343.774 225.359 344.249H225.359Z" fill="#FFB8B8"/>
<path d="M212.762 348.171L208.253 351.683C208.125 351.783 207.976 351.854 207.818 351.892C207.66 351.929 207.496 351.932 207.336 351.9C207.177 351.868 207.026 351.802 206.894 351.707C206.763 351.611 206.653 351.488 206.573 351.347L203.771 346.383C203.264 345.723 203.038 344.888 203.145 344.063C203.251 343.237 203.68 342.487 204.338 341.978C204.996 341.468 205.829 341.241 206.655 341.345C207.48 341.449 208.23 341.877 208.741 342.534L212.848 346.458C212.966 346.57 213.058 346.707 213.118 346.858C213.178 347.009 213.205 347.172 213.197 347.334C213.189 347.497 213.146 347.655 213.071 347.8C212.996 347.944 212.89 348.071 212.762 348.171V348.171Z" fill="#6833FF"/>
<path d="M226.511 342.588L231.084 344.647C231.275 344.733 231.424 344.892 231.499 345.088C231.573 345.285 231.567 345.503 231.481 345.695L230.939 346.899C231.003 346.928 231.053 346.981 231.077 347.046C231.102 347.112 231.1 347.184 231.072 347.248L230.855 347.73C230.826 347.794 230.773 347.843 230.708 347.868C230.643 347.893 230.57 347.891 230.506 347.862L230.29 348.344C230.353 348.373 230.403 348.426 230.428 348.492C230.453 348.557 230.451 348.63 230.422 348.694L230.206 349.175C230.177 349.239 230.124 349.289 230.058 349.314C229.993 349.338 229.92 349.336 229.857 349.308L226.933 355.812C226.847 356.003 226.688 356.153 226.492 356.227C226.296 356.302 226.078 356.295 225.886 356.209L221.314 354.15C221.122 354.064 220.973 353.905 220.899 353.708C220.824 353.512 220.831 353.294 220.917 353.102L225.464 342.985C225.55 342.794 225.709 342.644 225.905 342.569C226.102 342.495 226.32 342.501 226.511 342.588Z" fill="#3F3D56"/>
<path d="M222.144 353.509L225.812 355.163C225.996 355.245 226.205 355.251 226.393 355.18C226.582 355.109 226.734 354.966 226.818 354.782L228.512 351.01L229.1 349.703L230.634 346.29C230.716 346.107 230.722 345.898 230.65 345.71C230.579 345.522 230.437 345.37 230.254 345.287L229.1 344.766L226.583 343.633C226.399 343.551 226.19 343.545 226.002 343.617C225.814 343.689 225.662 343.832 225.58 344.016L224.097 347.315L222.408 351.071L221.764 352.505C221.682 352.689 221.676 352.898 221.747 353.086C221.818 353.274 221.961 353.426 222.144 353.509Z" fill="#F2F2F2"/>
<path d="M214.479 400.244L217.562 400.243L219.028 388.344L214.479 388.344L214.479 400.244Z" fill="#FFB8B8"/>
<path d="M213.693 399.236L219.763 399.236H219.763C220.271 399.236 220.774 399.336 221.244 399.531C221.713 399.725 222.139 400.011 222.499 400.37C222.858 400.73 223.143 401.156 223.337 401.626C223.532 402.096 223.632 402.599 223.632 403.108V403.234L213.694 403.234L213.693 399.236Z" fill="#2F2E41"/>
<path d="M222.524 399.489L225.606 399.489L227.073 387.589L222.524 387.589L222.524 399.489Z" fill="#FFB8B8"/>
<path d="M221.738 398.481L227.808 398.481H227.808C228.316 398.481 228.819 398.581 229.289 398.776C229.758 398.97 230.184 399.256 230.543 399.615C230.903 399.975 231.188 400.402 231.382 400.871C231.576 401.341 231.676 401.844 231.676 402.353V402.479L221.738 402.479L221.738 398.481Z" fill="#2F2E41"/>
<path d="M200.654 372.321C201.311 374.27 202.557 375.965 204.219 377.174C205.881 378.383 207.877 379.044 209.931 379.067L210.087 379.07C211.678 379.115 213.546 378.602 215.379 377.865C218.999 376.408 222.476 374.075 223.399 373.433L221.835 388.479L221.201 394.578C221.185 394.736 221.203 394.895 221.252 395.046C221.301 395.197 221.381 395.336 221.488 395.453C221.594 395.571 221.723 395.665 221.868 395.73C222.013 395.795 222.169 395.828 222.328 395.829H226.232C226.482 395.829 226.726 395.746 226.924 395.593C227.122 395.44 227.264 395.226 227.328 394.983L233.774 370.411C233.967 369.676 233.983 368.905 233.819 368.162C233.656 367.419 233.318 366.726 232.834 366.14C232.35 365.554 231.733 365.092 231.035 364.792C230.336 364.492 229.577 364.363 228.819 364.415L215.429 365.333L216.364 361.589L204.413 360.794L204.378 360.819C204.091 361.028 203.812 361.247 203.545 361.476C202.879 362.04 202.288 362.688 201.788 363.403C200.893 364.687 200.322 366.169 200.125 367.723C199.927 369.276 200.109 370.854 200.654 372.321Z" fill="#2F2E41"/>
<path d="M200.654 372.321C201.311 374.269 202.557 375.965 204.219 377.174C205.881 378.383 207.877 379.044 209.931 379.067C211.895 378.072 213.791 376.947 215.605 375.698L215.379 377.865L213.408 396.843C213.392 397.001 213.409 397.16 213.458 397.311C213.508 397.461 213.588 397.6 213.694 397.718C213.8 397.836 213.93 397.93 214.074 397.995C214.219 398.059 214.376 398.093 214.534 398.093H218.438C218.689 398.094 218.932 398.011 219.131 397.858C219.329 397.705 219.471 397.49 219.535 397.248L221.835 388.478L225.981 372.676C226.174 371.94 226.189 371.169 226.026 370.427C225.862 369.684 225.525 368.991 225.04 368.405C224.556 367.819 223.939 367.357 223.241 367.057C222.543 366.757 221.783 366.627 221.025 366.679L207.636 367.598L208.571 363.854L201.788 363.403C200.893 364.687 200.322 366.169 200.125 367.722C199.927 369.276 200.109 370.854 200.654 372.321Z" fill="#2F2E41"/>
<path d="M203.528 362.344L203.438 362.333L201.353 352.07C201.335 351.981 199.63 343.129 204.857 338.501L204.948 337.868C204.971 337.705 205.029 337.55 205.118 337.413C205.207 337.276 205.325 337.159 205.463 337.072C205.601 336.984 205.757 336.928 205.919 336.906C206.081 336.885 206.246 336.899 206.402 336.947L211.326 338.476C211.605 338.562 211.84 338.752 211.981 339.008C212.123 339.263 212.16 339.563 212.085 339.845L211.607 341.667C212.27 342.447 220.082 351.862 217.361 359.114L216.142 363.883L203.528 362.344Z" fill="#6833FF"/>
<path d="M223.972 354.334C223.855 354.408 223.743 354.492 223.638 354.583L211.597 351.348L210.81 348.42L206.24 349.032L207.131 354.35C207.203 354.78 207.412 355.174 207.727 355.475C208.042 355.775 208.446 355.965 208.878 356.017L222.965 357.682C223.189 358.17 223.555 358.577 224.016 358.851C224.477 359.125 225.01 359.251 225.545 359.214C226.08 359.177 226.59 358.978 227.009 358.644C227.428 358.309 227.735 357.855 227.89 357.341C228.044 356.827 228.039 356.279 227.874 355.768C227.71 355.258 227.394 354.81 226.969 354.483C226.544 354.157 226.029 353.968 225.494 353.941C224.959 353.914 224.428 354.051 223.972 354.334H223.972Z" fill="#FFB8B8"/>
<path d="M211.133 351.301L205.466 352.032C205.305 352.052 205.141 352.038 204.986 351.99C204.83 351.942 204.687 351.86 204.566 351.752C204.445 351.643 204.349 351.51 204.284 351.36C204.219 351.211 204.187 351.05 204.19 350.887L204.298 345.186C204.197 344.36 204.427 343.527 204.938 342.87C205.449 342.213 206.199 341.786 207.024 341.682C207.85 341.578 208.683 341.806 209.34 342.316C209.998 342.825 210.427 343.575 210.533 344.401L212.077 349.87C212.121 350.027 212.131 350.191 212.106 350.352C212.081 350.513 212.022 350.666 211.932 350.802C211.843 350.938 211.725 351.053 211.587 351.139C211.449 351.225 211.294 351.28 211.133 351.301Z" fill="#6833FF"/>
<path d="M209.538 335.554C212.948 335.554 215.712 332.787 215.712 329.374C215.712 325.96 212.948 323.193 209.538 323.193C206.128 323.193 203.363 325.96 203.363 329.374C203.363 332.787 206.128 335.554 209.538 335.554Z" fill="#FFB8B8"/>
<path d="M209.213 329.89L208.44 328.481C206.976 334.453 209.562 339.395 209.562 339.395L199.523 334.714L199.619 333.054L198.625 334.182L197.198 333.395L197.009 332.318L195.932 332.585L199.865 325.441C203.682 318.644 209.231 321.239 209.231 321.239C218.059 320.819 216.981 329.537 216.981 329.537L209.213 329.89Z" fill="#2F2E41"/>
<path d="M138.924 375.947C140.347 375.033 138.616 369.788 135.057 364.23C131.497 358.673 127.458 354.908 126.034 355.822C124.61 356.735 126.342 361.981 129.901 367.538C133.46 373.096 137.5 376.86 138.924 375.947Z" fill="#3F3D56"/>
</g>
<g clip-path="url(#clip1_152_896)">
<path d="M95.5325 557.239C94.8148 584.203 130.788 611.727 175.691 611.727C220.595 611.727 292.103 558.57 258.141 557.239C192.701 554.675 170.275 527.596 176.837 508.4C188.588 474.023 96.9458 504.148 95.5325 557.239Z" fill="#3F3D56"/>
<path d="M155.261 535.884L154.714 535.536L155.062 534.989L154.913 534.894L154.565 535.441L154.017 535.093L153.922 535.242L154.47 535.59L154.121 536.137L154.271 536.232L154.619 535.685L155.166 536.033L155.261 535.884Z" fill="#6833FF"/>
<path d="M195.973 575.49L195.426 575.142L195.774 574.595L195.625 574.5L195.277 575.047L194.729 574.699L194.634 574.848L195.182 575.196L194.833 575.743L194.983 575.838L195.331 575.291L195.878 575.639L195.973 575.49Z" fill="#6833FF"/>
<path d="M130.084 570.673L129.537 570.325L129.885 569.778L129.736 569.683L129.388 570.23L128.84 569.882L128.745 570.031L129.292 570.379L128.944 570.926L129.093 571.021L129.442 570.474L129.989 570.822L130.084 570.673Z" fill="#6833FF"/>
<path d="M179.367 596.364L178.82 596.015L179.168 595.468L179.019 595.374L178.67 595.921L178.123 595.572L178.028 595.722L178.575 596.07L178.227 596.617L178.376 596.712L178.724 596.165L179.272 596.513L179.367 596.364Z" fill="#6833FF"/>
<path d="M133.566 586.462L133.019 586.114L133.367 585.567L133.218 585.472L132.869 586.019L132.322 585.671L132.227 585.82L132.774 586.168L132.426 586.715L132.575 586.81L132.924 586.263L133.471 586.611L133.566 586.462Z" fill="#6833FF"/>
<path d="M243.917 573.349L243.37 573.001L243.718 572.454L243.569 572.359L243.22 572.906L242.673 572.558L242.578 572.707L243.125 573.055L242.777 573.602L242.926 573.697L243.275 573.15L243.822 573.498L243.917 573.349Z" fill="#6833FF"/>
<path d="M122.317 540.968L121.769 540.62L122.118 540.073L121.968 539.978L121.62 540.525L121.073 540.177L120.978 540.326L121.525 540.675L121.177 541.222L121.326 541.317L121.674 540.77L122.222 541.117L122.317 540.968Z" fill="#6833FF"/>
<path d="M168.118 546.984L167.351 546.497L167.839 545.731L167.63 545.598L167.142 546.364L166.376 545.877L166.243 546.086L167.009 546.573L166.522 547.339L166.731 547.472L167.218 546.706L167.985 547.193L168.118 546.984Z" fill="white"/>
<path d="M140.53 557.105C140.974 557.105 141.333 556.746 141.333 556.303C141.333 555.859 140.974 555.5 140.53 555.5C140.086 555.5 139.726 555.859 139.726 556.303C139.726 556.746 140.086 557.105 140.53 557.105Z" fill="#6833FF"/>
<path d="M109.192 557.105C109.636 557.105 109.996 556.746 109.996 556.303C109.996 555.859 109.636 555.5 109.192 555.5C108.749 555.5 108.389 555.859 108.389 556.303C108.389 556.746 108.749 557.105 109.192 557.105Z" fill="#6833FF"/>
<path d="M163.832 527.668C164.276 527.668 164.636 527.309 164.636 526.866C164.636 526.422 164.276 526.063 163.832 526.063C163.389 526.063 163.029 526.422 163.029 526.866C163.029 527.309 163.389 527.668 163.832 527.668Z" fill="#6833FF"/>
<path d="M156.333 576.641C156.776 576.641 157.136 576.281 157.136 575.838C157.136 575.395 156.776 575.035 156.333 575.035C155.889 575.035 155.529 575.395 155.529 575.838C155.529 576.281 155.889 576.641 156.333 576.641Z" fill="#6833FF"/>
<path d="M155.797 559.514C156.093 559.514 156.333 559.274 156.333 558.979C156.333 558.683 156.093 558.443 155.797 558.443C155.501 558.443 155.261 558.683 155.261 558.979C155.261 559.274 155.501 559.514 155.797 559.514Z" fill="#6833FF"/>
<path d="M210.705 583.064C211.001 583.064 211.24 582.824 211.24 582.528C211.24 582.233 211.001 581.993 210.705 581.993C210.409 581.993 210.169 582.233 210.169 582.528C210.169 582.824 210.409 583.064 210.705 583.064Z" fill="#FF6584"/>
<path d="M128.745 553.894C129.041 553.894 129.281 553.654 129.281 553.359C129.281 553.063 129.041 552.824 128.745 552.824C128.449 552.824 128.209 553.063 128.209 553.359C128.209 553.654 128.449 553.894 128.745 553.894Z" fill="#FF6584"/>
<path d="M162.225 510.541C162.521 510.541 162.761 510.302 162.761 510.006C162.761 509.711 162.521 509.471 162.225 509.471C161.929 509.471 161.69 509.711 161.69 510.006C161.69 510.302 161.929 510.541 162.225 510.541Z" fill="#FF6584"/>
<path d="M140.262 535.429C140.558 535.429 140.798 535.189 140.798 534.894C140.798 534.598 140.558 534.359 140.262 534.359C139.966 534.359 139.726 534.598 139.726 534.894C139.726 535.189 139.966 535.429 140.262 535.429Z" fill="#6833FF"/>
<path d="M146.958 517.499C147.254 517.499 147.494 517.26 147.494 516.964C147.494 516.668 147.254 516.429 146.958 516.429C146.662 516.429 146.422 516.668 146.422 516.964C146.422 517.26 146.662 517.499 146.958 517.499Z" fill="white"/>
<path d="M227.043 565.937C227.487 565.937 227.847 565.577 227.847 565.134C227.847 564.69 227.487 564.331 227.043 564.331C226.599 564.331 226.24 564.69 226.24 565.134C226.24 565.577 226.599 565.937 227.043 565.937Z" fill="#6833FF"/>
<path d="M173.742 568.88C174.186 568.88 174.546 568.521 174.546 568.077C174.546 567.634 174.186 567.275 173.742 567.275C173.299 567.275 172.939 567.634 172.939 568.077C172.939 568.521 173.299 568.88 173.742 568.88Z" fill="#6833FF"/>
<path d="M160.082 589.754C161.562 589.754 162.761 588.556 162.761 587.078C162.761 585.6 161.562 584.402 160.082 584.402C158.603 584.402 157.404 585.6 157.404 587.078C157.404 588.556 158.603 589.754 160.082 589.754Z" fill="#6833FF"/>
<path d="M192.491 558.711C192.935 558.711 193.295 558.352 193.295 557.908C193.295 557.465 192.935 557.105 192.491 557.105C192.048 557.105 191.688 557.465 191.688 557.908C191.688 558.352 192.048 558.711 192.491 558.711Z" fill="white"/>
<path d="M44.6223 686.594C44.6223 686.594 43.1231 692.857 44.486 693.129C45.8488 693.402 52.5266 693.314 54.162 693.586C55.7974 693.859 59.2045 693.402 59.2045 692.176C59.2045 690.951 55.6611 690.134 55.6611 690.134C55.6611 690.134 50.6187 687.411 50.4824 687.274C50.3461 687.138 44.6223 686.594 44.6223 686.594Z" fill="#2F2E41"/>
<path d="M46.2274 641.87C46.2274 641.87 46.7163 647.405 46.7163 647.893C46.7163 648.382 43.7833 674.104 44.4351 679.314C45.0868 684.523 44.3747 686.187 44.3747 687.164C44.3747 688.141 49.6492 687.779 49.6492 687.779L55.3521 651.801L52.4192 641.056L46.2274 641.87Z" fill="#2F2E41"/>
<path d="M46.5303 687.965C46.5303 687.965 45.1674 692.866 46.5303 693.139C47.8931 693.411 54.5709 692.827 56.2063 693.099C57.8417 693.371 61.2487 693.411 61.2487 692.186C61.2487 690.96 57.7054 690.143 57.7054 690.143C57.7054 690.143 52.663 687.42 52.5267 687.284C52.3904 687.148 46.5303 687.965 46.5303 687.965Z" fill="#2F2E41"/>
<path d="M44.7609 635.358C44.7609 635.358 42.8056 640.079 45.0868 642.521C47.368 644.963 49.975 649.847 49.975 650.173C49.975 650.498 45.4127 682.895 46.0644 685.012C46.7162 687.128 46.5532 688.43 46.3903 688.756C46.2274 689.082 48.0197 690.872 49.975 690.872C51.9303 690.872 54.8632 689.407 55.1891 688.105C55.515 686.802 54.7003 675.569 54.8632 673.453C55.0262 671.337 61.5438 637.474 60.7291 636.66C59.9144 635.846 44.7609 635.358 44.7609 635.358Z" fill="#2F2E41"/>
<path d="M57.1445 597.914C60.2041 597.914 62.6845 595.436 62.6845 592.379C62.6845 589.322 60.2041 586.844 57.1445 586.844C54.0848 586.844 51.6045 589.322 51.6045 592.379C51.6045 595.436 54.0848 597.914 57.1445 597.914Z" fill="#9F616A"/>
<path d="M53.7227 595.146C53.7227 595.146 54.8632 601.17 54.0485 601.821C53.2338 602.472 60.2403 603.449 60.2403 603.449C60.2403 603.449 61.055 595.472 61.2179 594.658C61.3809 593.844 53.7227 595.146 53.7227 595.146Z" fill="#9F616A"/>
<path d="M61.2179 602.961C61.2179 602.961 62.2689 597.225 54.2848 598.853C54.2848 598.853 46.9951 604.825 47.321 610.36C47.6468 615.895 44.7609 631.939 45.0868 633.079C45.4127 634.218 43.1315 635.683 44.1092 636.172C45.0868 636.66 62.6844 639.591 63.1732 636.172C63.662 632.753 63.0103 624.125 63.3361 622.497C63.662 620.869 63.3361 607.193 62.3585 605.566C61.3809 603.938 61.2179 602.961 61.2179 602.961Z" fill="#6833FF"/>
<path d="M57.7962 642.684C57.7962 642.684 55.3521 651.963 58.4479 651.963C61.5438 651.963 61.3809 642.358 61.3809 642.358L57.7962 642.684Z" fill="#9F616A"/>
<path d="M59.4015 593.303C59.3308 593.769 58.6093 593.963 57.5503 593.872L57.5487 593.872C57.1002 593.83 56.6555 593.754 56.2186 593.645C55.5577 593.482 55.1853 594.07 54.9451 594.883C54.5508 596.225 54.5211 598.184 54.1743 598.44C51.753 599.777 44.5987 590.812 48.2648 588.491C49.5705 587.664 53.9659 584.578 57.0026 585.201C60.0392 585.825 58.8099 589.591 58.8099 589.591C58.8099 589.591 58.9213 590.085 59.0476 590.72C59.2275 591.52 59.3491 592.332 59.4115 593.149C59.4115 593.201 59.4082 593.252 59.4015 593.303Z" fill="#2F2E41"/>
<path d="M59.7515 604.589C59.7515 604.589 54.2115 604.263 53.7227 612.403C53.2339 620.543 53.3968 628.195 53.3968 628.357C53.3968 628.52 55.678 643.986 57.7962 643.986C59.9144 643.986 61.5438 643.661 62.0327 642.847C62.5215 642.033 60.7291 630.311 60.7291 630.311C60.7291 630.311 59.9144 617.938 61.2179 614.031C62.5215 610.124 62.6844 605.077 59.7515 604.589Z" fill="#6833FF"/>
<path opacity="0.1" d="M53.4813 614.642L51.8743 632.036L57.2311 644.079L53.7492 631.769L53.4813 614.374" fill="black"/>
<path opacity="0.1" d="M61.2487 616.515L61.658 637.022L60.1774 625.881L61.2487 616.515Z" fill="black"/>
<path d="M89.0331 693.75H20V693.187H89.1354L89.0331 693.75Z" fill="#3F3D56"/>
</g>
<defs>
<clipPath id="clip0_152_896">
<rect width="247" height="192" fill="white" transform="translate(20 264.25)"/>
</clipPath>
<clipPath id="clip1_152_896">
<rect width="247" height="200" fill="white" transform="translate(20 493.75)"/>
</clipPath>
</defs>
</svg>
